Coordinates
version=1
nRows=10
nColumns=40
inDegrees=yes

Units are S.I. units (second, meters, Newtons, ...)
Angles are in degrees.

endheader
time	pelvis_tilt	pelvis_list	pelvis_rotation	pelvis_tx	pelvis_ty	pelvis_tz	hip_flexion_r	hip_adduction_r	hip_rotation_r	knee_angle_r	knee_angle_r_beta	ankle_angle_r	subtalar_angle_r	mtp_angle_r	hip_flexion_l	hip_adduction_l	hip_rotation_l	knee_angle_l	knee_angle_l_beta	ankle_angle_l	subtalar_angle_l	mtp_angle_l	lumbar_extension	lumbar_bending	lumbar_rotation	arm_flex_r	arm_add_r	arm_rot_r	elbow_flex_r	pro_sup_r	wrist_flex_r	wrist_dev_r	arm_flex_l	arm_add_l	arm_rot_l	elbow_flex_l	pro_sup_l	wrist_flex_l	wrist_dev_l
      6.10500000	     -2.53372563	     -4.29380855	      3.18722807	      0.83625088	      0.93577978	      0.49850535	      5.48274945	      4.74499116	    -19.91704588	     10.58262898	     10.58262898	     11.21843384	      9.20314111	     -5.19437329	     28.07797487	    -10.76035476	     -6.56708568	     28.72894739	     28.72894739	     10.83016204	    -14.73381615	     11.18122491	     -9.12810734	      9.61470681	      5.24700062	     25.06147120	    -16.08384775	     -4.27184975	     75.94182983	     44.91322647	      0.00000000	      0.00000000	     -0.56251477	     -6.55696425	     -1.32830289	     37.58384739	     47.07928555	      0.00000000	      0.00000000
      6.11771429	     -2.72418158	     -4.31310994	      3.38280249	      0.83469625	      0.93540995	      0.49867009	      5.11081968	      4.83290016	    -20.14648237	     10.30234410	     10.30234410	     11.49769858	      9.53349110	     -5.04466414	     28.38927931	    -10.37745196	     -6.34770810	     25.70712935	     25.70712935	     10.18691817	    -12.90354041	     10.30490441	     -9.08804721	      9.66484861	      5.26599557	     25.74324077	    -16.04244162	     -4.68299284	     79.61930187	     44.84186424	      0.00000000	      0.00000000	     -0.69105653	     -6.57373155	     -1.83323829	     34.61141100	     47.04391876	      0.00000000	      0.00000000
      6.13042857	     -2.93380676	     -4.26953827	      3.55743494	      0.83317686	      0.93506672	      0.49879986	      4.76567692	      4.86183579	    -20.26224847	     10.03510374	     10.03510374	     11.73934552	      9.65594043	     -5.03113964	     28.70416846	     -9.94309841	     -6.21438787	     22.91867395	     22.91867395	      9.85772919	    -10.81157448	     10.40802251	     -8.97269369	      9.58971347	      4.69331534	     27.06407681	    -15.37775452	     -4.69629950	     81.94896735	     44.77832156	      0.00000000	      0.00000000	     -1.63302952	     -6.94549368	     -1.91131505	     33.21283179	     47.01961181	      0.00000000	      0.00000000
      6.14314286	     -3.13930114	     -4.33726672	      3.70834670	      0.83169697	      0.93462845	      0.49883683	      4.38751921	      4.98923664	    -20.57615852	      9.72305361	      9.72305361	     12.01771172	     10.17788888	     -4.71678501	     29.11095399	     -9.69605872	     -6.30440326	     20.51813669	     20.51813669	      9.20395375	     -8.49482678	      9.39874268	     -8.96046016	      9.68815696	      5.10992156	     27.20094999	    -15.82825384	     -4.86942697	     86.45851151	     44.67122346	      0.00000000	      0.00000000	     -1.28692614	     -6.89756657	     -2.36444386	     29.94305294	     47.02532942	      0.00000000	      0.00000000
      6.15585714	     -3.38156031	     -4.35561401	      3.81791570	      0.83032139	      0.93416797	      0.49884345	      4.06461466	      5.07374381	    -20.67572140	      9.45043157	      9.45043157	     12.32853483	     10.44519796	     -4.47857802	     29.50546406	     -9.37483449	     -6.37501932	     18.33955391	     18.33955391	      8.63866592	     -6.47690431	      8.98937111	     -8.83606071	      9.69948143	      5.03355216	     27.89322962	    -15.55227616	     -5.18999202	     89.62203642	     44.61191255	      0.00000000	      0.00000000	     -1.55749541	     -7.05282266	     -2.63311934	     27.95951186	     47.01569468	      0.00000000	      0.00000000
      6.16857143	     -3.60431664	     -4.28722887	      3.87610961	      0.82898359	      0.93376041	      0.49877027	      3.76343461	      5.04674540	    -20.65463484	      9.27503003	      9.27503003	     12.59751651	     10.52218399	     -4.44527193	     29.80587763	     -8.96389460	     -6.47826111	     16.39417154	     16.39417154	      8.16650402	     -4.88242004	      9.19198795	     -8.70494401	      9.57597540	      4.72444283	     28.91301582	    -15.07899962	     -5.15841548	     91.55084076	     44.56049672	      0.00000000	      0.00000000	     -2.29282486	     -7.35984375	     -2.68627620	     27.05855224	     47.00205616	      0.00000000	      0.00000000
      6.18128571	     -3.78483062	     -4.27587620	      3.90781124	      0.82777423	      0.93329991	      0.49866726	      3.40214439	      5.08215277	    -20.66303770	      9.08071596	      9.08071596	     12.88018363	     10.68248763	     -4.33048267	     30.15460176	     -8.67036426	     -6.74666276	     14.97795470	     14.97795470	      7.72954328	     -3.49538660	      9.17998485	     -8.66440993	      9.50305067	      4.44221321	     29.74510320	    -14.72791372	     -4.97866983	     94.02896806	     44.48851330	      0.00000000	      0.00000000	     -2.92162647	     -7.64945322	     -2.73054808	     26.06235141	     46.98856159	      0.00000000	      0.00000000
      6.19400000	     -3.95015952	     -4.31234266	      3.91656330	      0.82674772	      0.93271149	      0.49841810	      3.03615655	      5.14744053	    -20.68682801	      8.94489754	      8.94489754	     13.32081561	     10.97721163	     -3.79771376	     30.57317968	     -8.46731777	     -7.09658253	     14.11296805	     14.11296805	      7.22737409	     -2.39478067	      8.47975483	     -8.64130532	      9.55168880	      5.05162379	     29.69533456	    -15.39625156	     -4.96145117	     97.87598883	     44.40336691	      0.00000000	      0.00000000	     -2.81875164	     -7.74140612	     -2.79663442	     24.54743114	     46.96935157	      0.00000000	      0.00000000
      6.20671429	     -4.13525592	     -4.28316602	      3.88073577	      0.82576022	      0.93208215	      0.49806490	      2.73423797	      5.12629897	    -20.58433100	      8.88726421	      8.88726421	     13.61920877	     10.98886908	     -3.77121449	     30.91819212	     -8.16785821	     -7.31050273	     13.50940187	     13.50940187	      6.90001609	     -2.06024767	      8.58069830	     -8.50636599	      9.47240470	      4.92013090	     30.55573295	    -15.15580236	     -5.00200467	     99.13198015	     44.37444299	      0.00000000	      0.00000000	     -3.43735616	     -7.97347299	     -2.80744039	     24.07935663	     46.95524438	      0.00000000	      0.00000000
      6.21942857	     -4.21442050	     -4.25160699	      3.83647942	      0.82499553	      0.93146426	      0.49761058	      2.33006778	      5.09088041	    -20.44826255	      8.89266686	      8.89266686	     13.99552080	     11.01651517	     -3.66076831	     31.12936893	     -7.89705787	     -7.54462158	     13.31015926	     13.31015926	      6.64000905	     -2.06033081	      8.51885333	     -8.53263759	      9.42217941	      4.68940908	     31.14021117	    -14.81371878	     -4.71389600	    101.15398168	     44.31332048	      0.00000000	      0.00000000	     -4.09085500	     -8.20229361	     -2.81092746	     23.64423603	     46.93579333	      0.00000000	      0.00000000
